HIERARCHY
ROOT Hips
{
	OFFSET 0.000000 0.000000 0.000000 
	CHANNELS 6 Xposition Yposition Zposition Zrotation Yrotation Xrotation
	JOINT LeftUpLeg
	{
		OFFSET 1.363060 -1.794630 0.839290 
		CHANNELS 3 Zrotation Yrotation Xrotation
		JOINT LeftLeg
		{
			OFFSET 2.448110 -6.726130 0.000000 
			CHANNELS 3 Zrotation Yrotation Xrotation
			JOINT LeftFoot
			{
				OFFSET 2.562200 -7.039590 0.000000 
				CHANNELS 3 Zrotation Yrotation Xrotation
				JOINT LeftToeBase
				{
					OFFSET 0.157640 -0.433110 2.322550 
					CHANNELS 3 Zrotation Yrotation Xrotation
					End Site
					{
						OFFSET 0.000000 0.000000 0.000000 
					}
				}
			}
		}
	}
	JOINT RightUpLeg
	{
		OFFSET -1.305520 -1.794630 0.839290 
		CHANNELS 3 Zrotation Yrotation Xrotation
		JOINT RightLeg
		{
			OFFSET -2.542530 -6.985550 0.000000 
			CHANNELS 3 Zrotation Yrotation Xrotation
			JOINT RightFoot
			{
				OFFSET -2.568260 -7.056230 0.000000 
				CHANNELS 3 Zrotation Yrotation Xrotation
				JOINT RightToeBase
				{
					OFFSET -0.164730 -0.452590 2.363150 
					CHANNELS 3 Zrotation Yrotation Xrotation
					End Site
					{
						OFFSET 0.000000 0.000000 0.000000 
					}
				}
			}
		}
	}
	JOINT Spine
	{
		OFFSET 0.028270 2.035590 -0.193380 
		CHANNELS 3 Zrotation Yrotation Xrotation
		JOINT Spine1
		{
			OFFSET 0.056720 2.048850 -0.042750 
			CHANNELS 3 Zrotation Yrotation Xrotation
			JOINT Neck1
			{
				OFFSET -0.054170 1.746240 0.172020 
				CHANNELS 3 Zrotation Yrotation Xrotation
				JOINT Head
				{
					OFFSET 0.104070 1.761360 -0.123970 
					CHANNELS 3 Zrotation Yrotation Xrotation
					End Site
					{
						OFFSET 0.000000 0.000000 0.000000 
					}
				}
			}
			JOINT LeftArm
			{
				OFFSET 3.362410 1.200890 -0.311210 
				CHANNELS 3 Zrotation Yrotation Xrotation
				JOINT LeftForeArm
				{
					OFFSET 4.983000 -0.000000 -0.000000 
					CHANNELS 3 Zrotation Yrotation Xrotation
					JOINT LeftHand
					{
						OFFSET 3.483560 -0.000000 -0.000000 
						CHANNELS 3 Zrotation Yrotation Xrotation
						JOINT LeftHandIndex1
						{
							OFFSET 0.715260 -0.000000 -0.000000 
							CHANNELS 3 Zrotation Yrotation Xrotation
							End Site
							{
								OFFSET 0.000000 0.000000 0.000000 
							}
						}
					}
				}
			}
			JOINT RightArm
			{
				OFFSET -3.136600 1.374050 -0.404650 
				CHANNELS 3 Zrotation Yrotation Xrotation
				JOINT RightForeArm
				{
					OFFSET -5.241900 -0.000000 -0.000000 
					CHANNELS 3 Zrotation Yrotation Xrotation
					JOINT RightHand
					{
						OFFSET -3.444170 -0.000000 -0.000000 
						CHANNELS 3 Zrotation Yrotation Xrotation
						JOINT RightHandIndex1
						{
							OFFSET -0.622530 -0.000000 -0.000000 
							CHANNELS 3 Zrotation Yrotation Xrotation
							End Site
							{
								OFFSET 0.000000 0.000000 0.000000 
							}
						}
					}
				}
			}
		}
	}
}
MOTION
Frames: 15
Frame Time: 0.041667
0.483921 18.369196 8.164809 -6.221397 -2.276818 8.913709 -21.047031 -37.288585 18.466686 -3.522162 -2.343874 -2.450950 -12.676885 40.354144 -21.121924 0.028700 1.093900 3.007200 23.516451 26.245739 4.684372 3.483200 -0.301318 2.985249 7.536415 -24.283489 -2.717624 -0.009600 -0.634000 1.742300 7.365621 3.404594 -11.294272 -7.157539 -0.464270 -16.998144 16.076802 -13.055991 55.897358 3.108900 -2.575400 16.898000 -34.160346 4.117009 53.132746 42.525185 -45.219292 -24.020385 3.961021 0.927507 -16.450636 -7.125000 0.000000 0.000000 33.904850 0.336051 48.566824 -31.895266 40.730878 -15.504541 -2.626533 0.920701 -7.860378 7.125000 0.000000 0.000000 
0.484550 18.368357 8.165858 -6.173130 -2.323446 8.953114 -21.116287 -37.336741 18.517193 -3.527769 -2.342737 -2.441181 -12.596085 40.237715 -21.434896 0.042900 1.336300 3.674700 23.493845 26.308740 4.713093 3.484709 -0.297605 2.968987 7.549295 -24.321416 -2.719748 -0.009500 -0.629700 1.730300 7.140631 3.415535 -11.556848 -7.110358 -0.436948 -16.919622 16.215116 -13.112884 55.729121 3.133600 -2.585400 16.780000 -34.439975 4.115122 52.612200 41.269001 -44.594660 -22.977477 4.274365 0.496519 -10.446303 -7.125000 0.000000 0.000000 33.838565 0.325810 49.064671 -30.532343 39.709326 -14.525063 -2.736011 1.457443 -2.353160 7.125000 0.000000 0.000000 
0.484970 18.367833 8.167011 -6.135407 -2.357573 8.968362 -21.167888 -37.345942 18.557442 -3.529354 -2.346517 -2.452638 -12.583583 40.227591 -21.506575 0.043900 1.351600 3.716700 23.482714 26.361241 4.750060 3.486335 -0.293469 2.958871 7.557368 -24.340174 -2.751130 -0.010200 -0.652600 1.793400 6.970428 3.411940 -11.679638 -7.065847 -0.419459 -16.897916 16.306834 -13.154692 55.656685 3.152000 -2.591500 16.725600 -34.720586 4.115060 52.029245 40.007778 -43.944019 -21.954503 4.519640 0.023831 -4.808422 -7.125000 0.000000 0.000000 33.829953 0.301885 49.124895 -29.348432 38.770221 -13.671030 -2.715079 1.963926 3.305182 7.125000 0.000000 0.000000 
0.484655 18.367624 8.168164 -6.125013 -2.378032 8.943043 -21.210211 -37.369481 18.623104 -3.529995 -2.350620 -2.461134 -12.605171 40.273511 -21.514426 0.045300 1.374300 3.779300 23.497991 26.402598 4.804417 3.488582 -0.285095 2.950277 7.555894 -24.324950 -2.823934 -0.015000 -0.789800 2.170600 6.877237 3.412592 -11.555643 -7.034282 -0.403590 -16.961188 16.295584 -13.168238 55.648499 3.136500 -2.596700 16.715300 -35.032391 4.154735 51.433297 38.699873 -43.247108 -20.928441 4.684823 -0.535008 1.416215 -7.125000 0.000000 0.000000 33.971490 0.229587 48.331566 -28.338561 37.932759 -12.953754 -2.583526 2.383083 9.917015 7.125000 0.000000 0.000000 
0.484131 18.367519 8.169632 -6.142342 -2.398505 8.916559 -21.282858 -37.476086 18.753244 -3.534665 -2.353733 -2.455701 -12.616453 40.323919 -21.716070 0.057300 1.544600 4.248800 23.529559 26.464954 4.868902 3.491115 -0.274746 2.933638 7.555569 -24.316066 -2.898860 -0.022000 -0.956700 2.629700 6.917723 3.441315 -11.410507 -7.048102 -0.389164 -17.015785 16.242693 -13.147823 55.521812 3.109200 -2.605200 16.640100 -35.453610 4.260799 50.601437 37.528459 -42.596544 -20.031788 4.733508 -1.201734 8.317637 -7.125000 0.000000 0.000000 34.208373 0.088026 47.255476 -27.506740 37.205497 -12.360857 -2.350373 2.794693 16.162670 7.125000 0.000000 0.000000 
0.483712 18.367204 8.171309 -6.153621 -2.401468 8.944072 -21.404732 -37.616772 18.916105 -3.539598 -2.376762 -2.512106 -12.705561 40.528223 -21.839161 0.051200 1.460000 4.015600 23.514809 26.490971 4.868909 3.491838 -0.269826 2.905158 7.563968 -24.350141 -2.866659 -0.017300 -0.849700 2.335500 7.151298 3.479905 -11.558080 -7.081739 -0.395436 -17.016349 16.167738 -13.053016 55.474111 3.109900 -2.582900 16.609700 -35.925309 4.541760 49.599414 36.522733 -42.023251 -19.280718 4.607940 -1.950127 15.621658 -7.125000 0.000000 0.000000 34.446503 -0.093351 46.250175 -26.802215 36.563082 -11.845617 -2.019466 3.182340 21.832044 7.125000 0.000000 0.000000 
0.482978 18.366995 8.172462 -6.194495 -2.332626 9.041600 -21.442932 -37.753650 19.004008 -3.539226 -2.410865 -2.622790 -12.849654 40.810761 -21.724830 0.033000 1.172000 3.222200 23.496694 26.421786 4.773204 3.490892 -0.270106 2.871033 7.569966 -24.396736 -2.747101 -0.010000 -0.647200 1.778600 7.482879 3.519010 -11.990580 -7.139115 -0.423431 -16.950070 16.084716 -12.962567 55.473750 3.116000 -2.565900 16.616600 -36.362449 4.894599 48.544035 35.529512 -41.432465 -18.542022 4.254417 -2.710460 23.162255 -7.125000 0.000000 0.000000 34.751097 -0.351888 45.051213 -26.213497 36.005338 -11.402927 -1.612053 3.485520 27.378938 7.125000 0.000000 0.000000 
0.482454 18.366575 8.174349 -6.293738 -2.220077 9.131322 -21.406163 -37.952461 19.073744 -3.542429 -2.424617 -2.661481 -12.858307 40.853496 -21.919406 0.037000 1.242100 3.415300 23.531019 26.318350 4.670939 3.490833 -0.268308 2.846729 7.558581 -24.385441 -2.712304 -0.010200 -0.653300 1.795300 7.840550 3.541753 -12.250295 -7.236716 -0.463273 -16.876325 16.123454 -12.945890 55.422095 3.142000 -2.560300 16.609800 -36.779867 5.163424 47.346755 34.500586 -40.763507 -17.748905 3.654966 -3.356169 30.332692 -7.125000 0.000000 0.000000 35.111691 -0.644732 43.615262 -25.750132 35.532359 -11.030233 -1.156319 3.687362 32.562701 7.125000 0.000000 0.000000 
0.480986 18.366365 8.175922 -6.366919 -2.128885 9.188736 -21.375103 -38.155610 19.130177 -3.548453 -2.423603 -2.645610 -12.768921 40.725666 -22.312678 0.056700 1.536800 4.227300 23.578534 26.381753 4.657900 3.494214 -0.270694 2.848270 7.574743 -24.423673 -2.882803 -0.015100 -0.793600 2.181000 8.104547 3.539790 -12.288255 -7.304840 -0.493066 -16.831288 16.335753 -12.974501 55.297174 3.218000 -2.545100 16.569800 -37.196379 5.372394 46.033565 33.545564 -40.072787 -16.955494 2.852166 -3.757754 36.500457 -7.125000 0.000000 0.000000 35.487738 -0.931837 42.083700 -25.423808 35.161207 -10.731775 -0.683027 3.792781 37.031838 7.125000 0.000000 0.000000 
0.478889 18.366680 8.176236 -6.425220 -2.051186 9.064253 -21.341807 -38.254252 19.151175 -3.552025 -2.439044 -2.633308 -12.729055 40.635282 -22.393262 0.062600 1.613900 4.439900 23.584791 26.504787 4.720754 3.497495 -0.263199 2.859972 7.618270 -24.509170 -3.064158 -0.019400 -0.898200 2.468700 8.759414 3.429575 -10.920900 -7.395428 -0.544054 -17.009764 16.537551 -12.996784 55.177723 3.289000 -2.525800 16.546400 -37.597348 5.382259 44.529183 32.801584 -39.435615 -16.242950 1.987839 -3.860074 41.433979 -7.125000 0.000000 0.000000 35.494249 -0.792877 41.049760 -25.164709 34.810981 -10.453256 -0.241345 3.829975 40.068509 7.125000 0.000000 0.000000 
0.478260 18.366890 8.177075 -6.557331 -2.000029 8.551418 -21.343474 -38.233521 19.257769 -3.559130 -2.489311 -2.599558 -12.747265 40.581033 -22.211262 0.055300 1.517600 4.174300 23.540269 26.477043 4.845365 3.496909 -0.224657 2.868132 7.649125 -24.519842 -3.062648 -0.019300 -0.897800 2.467700 10.438530 3.037844 -6.600061 -7.619818 -0.663266 -17.633767 16.505754 -12.844202 54.857547 3.288500 -2.462500 16.442400 -38.025282 4.975316 42.595670 32.258733 -38.831712 -15.613586 1.234798 -3.719921 45.541857 -7.125000 0.000000 0.000000 35.046249 0.071014 40.370728 -24.942695 34.399806 -10.155901 0.179272 3.799584 41.962773 7.125000 0.000000 0.000000 
0.478051 18.366785 8.178857 -6.484544 -1.978684 8.548649 -21.355041 -38.209761 19.208595 -3.554665 -2.481619 -2.596270 -12.768680 40.604984 -22.061901 0.050000 1.443500 3.970000 23.494135 26.403548 4.822809 3.497590 -0.214956 2.856432 7.651254 -24.519832 -3.009061 -0.017000 -0.841600 2.313200 10.020039 2.954244 -6.425034 -7.509793 -0.655612 -17.686650 16.540055 -12.929748 54.858097 3.280900 -2.499500 16.450200 -38.220282 5.107509 41.360375 31.831690 -38.438094 -15.156584 0.647272 -3.401275 48.984939 -7.125000 0.000000 0.000000 35.326461 -0.176658 39.263695 -24.803210 34.166144 -9.922078 0.602518 3.612165 44.082697 7.125000 0.000000 0.000000 
0.476688 18.366365 8.180744 -6.365146 -1.983393 8.732436 -21.350106 -38.221702 19.128449 -3.549986 -2.463280 -2.619540 -12.753817 40.607060 -22.104815 0.054000 1.499200 4.123500 23.480971 26.361091 4.763473 3.498921 -0.220584 2.849354 7.647502 -24.527500 -2.990852 -0.016400 -0.825700 2.269300 8.953627 3.002621 -7.736022 -7.276250 -0.601799 -17.529270 16.412556 -13.010879 54.990658 3.206900 -2.556900 16.473600 -38.427707 5.465140 40.148998 31.514160 -38.176372 -14.827051 0.161473 -2.907727 51.493019 -7.125000 0.000000 0.000000 36.000812 -0.912176 37.708816 -24.776895 34.079405 -9.771914 0.966374 3.274142 46.062974 7.125000 0.000000 0.000000 
0.474696 18.365422 8.182317 -6.223642 -1.988516 9.098205 -21.335759 -38.256751 18.999627 -3.543018 -2.428506 -2.650123 -12.737461 40.629947 -22.183714 0.062000 1.606300 4.418900 23.469021 26.402568 4.667870 3.501017 -0.243618 2.843916 7.641814 -24.550222 -3.038863 -0.017600 -0.856700 2.354700 7.642115 3.137373 -10.471946 -7.000902 -0.531126 -17.164462 16.286608 -13.029832 55.088338 3.143200 -2.582500 16.455800 -38.798289 6.076839 38.797931 31.292508 -38.040831 -14.628594 -0.218102 -2.300893 53.286989 -7.125000 0.000000 0.000000 36.810552 -1.924757 36.261800 -24.742177 34.041959 -9.657561 1.215162 2.842247 47.429366 7.125000 0.000000 0.000000 
0.473647 18.365317 8.183260 -6.199632 -1.978959 9.308536 -21.299960 -38.280188 18.912411 -3.539613 -2.410925 -2.660660 -12.741123 40.656837 -22.189937 0.064000 1.632500 4.490900 23.467712 26.498508 4.623324 3.503786 -0.253656 2.826233 7.646683 -24.583383 -3.131118 -0.019900 -0.910500 2.502700 7.381425 3.210795 -11.898472 -6.952710 -0.522888 -16.965455 16.451740 -13.116573 55.055963 3.205900 -2.612200 16.458900 -39.366621 6.571252 37.011409 31.198003 -37.978788 -14.547858 -0.486259 -1.686924 54.919379 -7.125000 0.000000 0.000000 37.536454 -2.567831 34.586824 -24.701504 33.985044 -9.589799 1.370420 2.361414 48.492105 7.125000 0.000000 0.000000 
